<?xml version="1.0" encoding="UTF-8" standalone="no"?>
<!-- Created with Inkscape (http://www.inkscape.org/) -->

<svg
   xmlns:dc="http://purl.org/dc/elements/1.1/"
   xmlns:cc="http://creativecommons.org/ns#"
   xmlns:rdf="http://www.w3.org/1999/02/22-rdf-syntax-ns#"
   xmlns:svg="http://www.w3.org/2000/svg"
   xmlns="http://www.w3.org/2000/svg"
   xmlns:sodipodi="http://sodipodi.sourceforge.net/DTD/sodipodi-0.dtd"
   xmlns:inkscape="http://www.inkscape.org/namespaces/inkscape"
   width="200"
   height="362"
   id="svg2"
   version="1.1"
   inkscape:version="0.92.2 5c3e80d, 2017-08-06"
   sodipodi:docname="muscle-18a.svg">
  <defs
     id="defs4" />
  <sodipodi:namedview
     id="base"
     pagecolor="#ffffff"
     bordercolor="#666666"
     borderopacity="1.0"
     inkscape:pageopacity="0.0"
     inkscape:pageshadow="2"
     inkscape:zoom="22.4"
     inkscape:cx="75.518861"
     inkscape:cy="274.06961"
     inkscape:document-units="px"
     inkscape:current-layer="layer1"
     showgrid="false"
     fit-margin-top="0"
     fit-margin-left="0"
     fit-margin-right="0"
     fit-margin-bottom="0"
     inkscape:window-width="1680"
     inkscape:window-height="1005"
     inkscape:window-x="0"
     inkscape:window-y="1"
     inkscape:window-maximized="1" />
  <metadata
     id="metadata7">
    <rdf:RDF>
      <cc:Work
         rdf:about="">
        <dc:format>image/svg+xml</dc:format>
        <dc:type
           rdf:resource="http://purl.org/dc/dcmitype/StillImage" />
        <dc:title></dc:title>
      </cc:Work>
    </rdf:RDF>
  </metadata>
  <g
     inkscape:label="Ebene 1"
     inkscape:groupmode="layer"
     id="layer1"
     transform="translate(-395.71431,-323.50506)">
    <path
       sodipodi:nodetypes="caassccssc"
       inkscape:connector-curvature="0"
       id="path2992"
       d="m 520.17583,398.49603 c -1.66702,1.72091 4.20166,3.95572 6.40461,5.817 1.37219,1.15936 2.93118,2.09637 4.23851,3.3284 3.74149,3.52598 7.99848,10.63988 10.22767,11.54452 1.10698,0.44923 3.43858,1.55319 5.07037,1.23438 1.6542,-0.3232 2.33374,-1.9028 2.83896,-3.3389 0.66568,-4.26786 1.18316,-8.79005 -0.10639,-14.28033 -0.41087,-0.97605 -0.98036,-1.64382 -1.74126,-2.30757 -3.05041,-2.66095 -8.2364,-3.28342 -12.36459,-3.85587 -4.84891,-0.67239 -14.36574,1.56467 -14.56788,1.85837 z"
       style="opacity:0.52424239;fill:#fc0000;fill-opacity:1;stroke:none" />
    <path
       sodipodi:nodetypes="caazcscac"
       inkscape:connector-curvature="0"
       id="path2992-1"
       d="m 470.30477,398.92298 c 1.66702,1.72091 -3.07861,2.66484 -4.66353,3.942 -2.54108,2.04764 -5.39362,3.72067 -7.76529,5.96233 -3.76279,3.55652 -7.9092,10.8631 -10.13838,11.76773 -2.22919,0.90463 -3.64075,0.92802 -4.0254,-1.79202 -0.19749,-2.20939 -0.43588,-4.70101 -0.58954,-7.41003 -0.1366,-2.40844 0.14156,-4.95342 0.51735,-7.49529 0.85269,-5.60328 5.59503,-6.20812 9.41836,-7.23487 5.59956,-1.50376 17.04429,1.96645 17.24643,2.26015 z"
       style="opacity:0.52424239;fill:#fc0000;fill-opacity:1;stroke:none" />
  </g>
</svg>
