<?xml version="1.0" encoding="UTF-8" standalone="no"?>
<!-- Created with Inkscape (http://www.inkscape.org/) -->

<svg
   xmlns:dc="http://purl.org/dc/elements/1.1/"
   xmlns:cc="http://creativecommons.org/ns#"
   xmlns:rdf="http://www.w3.org/1999/02/22-rdf-syntax-ns#"
   xmlns:svg="http://www.w3.org/2000/svg"
   xmlns="http://www.w3.org/2000/svg"
   xmlns:sodipodi="http://sodipodi.sourceforge.net/DTD/sodipodi-0.dtd"
   xmlns:inkscape="http://www.inkscape.org/namespaces/inkscape"
   width="200"
   height="362"
   id="svg2"
   version="1.1"
   inkscape:version="0.92.2 5c3e80d, 2017-08-06"
   sodipodi:docname="muscle-17a.svg">
  <defs
     id="defs4" />
  <sodipodi:namedview
     id="base"
     pagecolor="#ffffff"
     bordercolor="#666666"
     borderopacity="1.0"
     inkscape:pageopacity="0.0"
     inkscape:pageshadow="2"
     inkscape:zoom="15.839192"
     inkscape:cx="136.16387"
     inkscape:cy="278.07539"
     inkscape:document-units="px"
     inkscape:current-layer="layer1"
     showgrid="false"
     fit-margin-top="0"
     fit-margin-left="0"
     fit-margin-right="0"
     fit-margin-bottom="0"
     inkscape:window-width="1680"
     inkscape:window-height="1005"
     inkscape:window-x="0"
     inkscape:window-y="1"
     inkscape:window-maximized="1" />
  <metadata
     id="metadata7">
    <rdf:RDF>
      <cc:Work
         rdf:about="">
        <dc:format>image/svg+xml</dc:format>
        <dc:type
           rdf:resource="http://purl.org/dc/dcmitype/StillImage" />
        <dc:title />
      </cc:Work>
    </rdf:RDF>
  </metadata>
  <g
     inkscape:label="Ebene 1"
     inkscape:groupmode="layer"
     id="layer1"
     transform="translate(-395.71431,-323.50506)">
    <path
       sodipodi:nodetypes="csssscscac"
       inkscape:connector-curvature="0"
       id="path2992"
       d="m 518.74726,391.26389 c -1.66702,1.72091 6.75881,0.89819 12.10839,1.11069 3.60659,0.14327 6.60309,2.95009 8.28437,5.89231 1.93092,3.37907 2.50518,9.16632 2.19925,13.83946 -0.25011,3.82023 -0.38194,7.30281 -0.38194,7.30281 -0.17503,2.39937 3.43472,0.92934 2.92651,-1.56749 -0.0263,-2.21333 -9.4e-4,-4.85465 -0.2146,-7.66865 -0.18109,-2.38508 -0.44318,-5.02047 -0.80948,-7.49818 -0.85269,-5.60328 -3.44859,-11.21059 -8.19002,-13.4875 -4.82494,-2.31702 -15.72034,1.78285 -15.92248,2.07655 z"
       style="opacity:0.52424239;fill:#fc0000;fill-opacity:1;stroke:none" />
    <path
       sodipodi:nodetypes="casssccac"
       inkscape:connector-curvature="0"
       id="path2992-1"
       d="m 467.94763,392.44977 c 1.66702,1.72091 -10.74506,-1.02649 -15.09552,1.55449 -3.51007,2.0824 -6.37077,5.98999 -6.93872,10.08796 -0.2904,2.0953 -0.61621,5.265 -0.49898,8.1819 0.1771,4.40647 0.32316,8.32092 0.32316,8.32092 -1.24506,2.05851 -2.61397,0.55053 -2.10577,-1.9463 0.0486,-4.08929 -0.1584,-11.87031 0.64009,-17.2713 0.85269,-5.60328 5.56636,-10.88576 10.84129,-12.47612 4.2497,-1.28127 12.63231,3.25475 12.83445,3.54845 z"
       style="opacity:0.52424239;fill:#fc0000;fill-opacity:1;stroke:none" />
  </g>
</svg>
